<?xml version="1.0" standalone="no"?>
<!DOCTYPE svg PUBLIC "-//W3C//DTD SVG 20010904//EN"
 "http://www.w3.org/TR/2001/REC-SVG-20010904/DTD/svg10.dtd">
<svg version="1.0" xmlns="http://www.w3.org/2000/svg"
 width="1563.000000pt" height="1563.000000pt" viewBox="0 0 1563.000000 1563.000000"
 preserveAspectRatio="xMidYMid meet">

<g transform="translate(0.000000,1563.000000) scale(0.100000,-0.100000)"
fill="#000000" stroke="none">
<path d="M8825 11176 c-82 -20 -146 -56 -205 -115 -47 -48 -131 -188 -565
-948 -281 -491 -513 -893 -517 -893 -3 0 -111 183 -239 408 -160 279 -248 423
-280 457 -153 162 -392 199 -591 93 -120 -64 -129 -77 -695 -1069 -287 -503
-533 -936 -545 -964 -20 -42 -23 -67 -23 -161 0 -107 1 -112 38 -187 44 -89
109 -159 186 -201 104 -56 104 -56 772 -56 587 0 620 1 681 20 79 24 165 84
210 147 19 27 135 225 259 441 172 302 226 389 235 380 6 -7 110 -186 230
-398 182 -319 229 -394 275 -440 200 -198 516 -199 711 -4 47 46 168 253 866
1474 447 781 820 1436 828 1456 42 99 38 226 -10 330 -50 110 -174 208 -294
233 -78 16 -1259 14 -1327 -3z m1286 -344 c61 -68 113 32 -778 -1524 -643
-1124 -813 -1414 -837 -1429 -40 -25 -137 -26 -176 -2 -21 12 -100 141 -307
502 -153 267 -279 488 -281 492 -3 6 1070 1892 1124 1977 l15 22 605 -2 606
-3 29 -33z m-3374 -932 c18 -10 43 -36 57 -57 29 -46 545 -949 548 -961 2 -5
-127 -237 -287 -515 l-290 -507 -585 0 c-563 0 -586 1 -617 20 -18 10 -39 33
-48 49 -38 74 -54 40 504 1016 286 499 530 919 543 932 13 14 32 29 43 33 36
15 99 11 132 -10z"/>
<path d="M3051 6626 c-8 -9 -10 -139 -9 -462 l3 -449 113 -3 112 -3 0 226 c0
124 2 225 5 225 3 0 118 -102 255 -227 138 -126 260 -232 271 -237 15 -7 23
-6 30 5 5 8 9 210 9 460 0 398 -2 448 -16 453 -23 9 -187 7 -201 -2 -9 -6 -13
-66 -15 -222 l-3 -214 -263 232 c-145 128 -267 232 -271 232 -5 0 -14 -6 -20
-14z"/>
<path d="M10342 6628 c-18 -24 -422 -885 -422 -902 0 -14 16 -16 124 -16 l123
0 21 50 21 50 156 0 155 0 23 -47 22 -48 119 -3 c66 -1 123 1 128 6 7 7 -398
878 -423 909 -14 16 -34 17 -47 1z m67 -523 c23 -58 41 -108 41 -110 0 -3 -39
-5 -86 -5 -47 0 -84 4 -82 8 2 5 21 54 42 110 22 56 41 102 42 102 1 0 21 -47
43 -105z"/>
<path d="M12204 6630 c-94 -19 -168 -71 -207 -144 -30 -57 -30 -174 0 -231 35
-67 103 -120 235 -185 123 -60 158 -87 158 -120 0 -57 -103 -74 -243 -41 -49
12 -96 21 -106 21 -12 0 -24 -22 -45 -86 -15 -47 -25 -91 -23 -98 11 -28 145
-51 297 -51 144 0 146 0 212 33 109 54 148 118 148 243 0 81 -31 152 -89 201
-23 20 -103 66 -176 102 -112 55 -136 71 -141 93 -9 33 5 55 42 65 35 11 127
2 191 -17 38 -11 50 -12 59 -2 20 21 58 167 47 178 -16 16 -193 49 -258 48
-33 -1 -78 -5 -101 -9z"/>
<path d="M4142 6612 c-10 -7 -12 -104 -10 -453 l3 -444 300 0 300 0 3 94 c2
69 -1 97 -10 103 -7 4 -91 8 -185 8 l-173 0 0 50 0 49 158 3 157 3 3 92 3 92
-158 3 -158 3 -3 97 -3 98 183 2 183 3 3 94 c2 69 -1 97 -10 103 -17 10 -569
10 -586 0z"/>
<path d="M5022 6612 c-10 -7 -12 -104 -10 -453 l3 -444 115 0 115 0 3 153 3
152 154 0 c179 0 168 -8 163 115 l-3 70 -155 5 -155 5 -3 97 -3 98 183 2 183
3 3 94 c2 69 -1 97 -10 103 -17 10 -569 10 -586 0z"/>
<path d="M5808 6609 c-15 -8 -18 -24 -18 -89 0 -114 -5 -110 111 -110 l99 0 2
-347 3 -348 118 -3 117 -3 0 350 0 350 103 3 102 3 3 94 c2 69 -1 97 -10 103
-19 12 -609 10 -630 -3z"/>
<path d="M6672 6611 c-11 -6 -13 -76 -10 -347 3 -333 3 -340 27 -387 31 -62
108 -130 179 -159 49 -19 76 -22 197 -23 110 0 151 4 191 18 71 25 136 70 168
116 52 75 56 107 56 457 0 284 -2 323 -16 328 -30 11 -209 7 -222 -6 -9 -9
-12 -90 -12 -302 0 -257 -2 -295 -18 -326 -51 -101 -233 -101 -284 0 -16 31
-18 69 -18 331 0 262 -2 298 -16 303 -24 9 -207 7 -222 -3z"/>
<path d="M7772 6612 c-9 -6 -12 -104 -10 -453 l3 -444 115 0 115 0 3 152 3
151 147 4 c164 4 197 13 258 76 55 57 77 130 72 242 -5 110 -25 159 -85 209
-66 54 -112 63 -373 68 -129 2 -241 0 -248 -5z m447 -226 c15 -14 21 -31 21
-63 0 -78 -58 -109 -185 -101 l-50 3 -3 93 -3 94 100 -4 c80 -2 103 -7 120
-22z"/>
<path d="M9232 6612 c-10 -7 -12 -104 -10 -453 l3 -444 265 0 265 0 3 90 c2
76 0 92 -14 102 -12 9 -59 13 -151 13 l-133 0 0 344 c0 304 -2 345 -16 350
-23 9 -197 7 -212 -2z"/>
<path d="M11042 6612 c-10 -7 -12 -104 -10 -453 l3 -444 224 -3 c246 -3 312 7
383 53 64 43 92 97 96 184 5 100 -21 152 -97 197 l-52 32 27 21 c72 57 103
145 83 239 -21 101 -95 157 -232 172 -100 12 -407 13 -425 2z m428 -222 c27
-27 26 -81 0 -105 -16 -15 -42 -20 -110 -23 l-90 -4 0 76 0 76 90 0 c77 0 93
-3 110 -20z m7 -332 c30 -28 32 -89 3 -118 -17 -17 -33 -20 -115 -20 l-95 0 0
80 0 80 92 0 c80 0 95 -3 115 -22z"/>
<path d="M4370 5165 l0 -165 93 0 c53 0 102 6 117 13 55 28 64 94 18 137 -20
18 -20 21 -5 38 26 28 22 88 -8 117 -22 23 -32 25 -120 25 l-95 0 0 -165z
m161 105 c21 -12 25 -50 7 -68 -7 -7 -34 -12 -60 -12 l-48 0 0 45 0 45 41 0
c22 0 49 -5 60 -10z m28 -152 c16 -41 -8 -63 -73 -66 l-56 -3 0 46 0 45 60 0
c54 0 62 -3 69 -22z"/>
<path d="M4770 5166 l0 -166 110 0 110 0 0 25 c0 25 -1 25 -80 25 l-79 0 -3
138 -3 137 -27 3 -28 3 0 -165z"/>
<path d="M5200 5319 c-33 -13 -68 -47 -86 -81 -19 -36 -18 -112 2 -154 51
-108 220 -111 274 -4 55 108 -8 236 -121 246 -24 2 -55 -1 -69 -7z m121 -75
c14 -15 24 -40 27 -72 4 -44 1 -53 -26 -83 -41 -46 -92 -47 -133 -1 -89 100
41 253 132 156z"/>
<path d="M5610 5307 c-149 -79 -78 -321 90 -305 50 5 110 39 110 63 0 19 -43
42 -48 26 -5 -16 -56 -41 -83 -41 -11 0 -36 15 -55 34 -29 29 -34 41 -34 80 0
36 6 52 28 77 35 39 91 43 127 9 20 -19 26 -20 44 -8 32 19 25 34 -29 67 -45
27 -96 27 -150 -2z"/>
<path d="M5950 5166 l0 -166 30 0 c30 0 30 1 30 53 0 42 5 58 21 73 13 11 23
14 27 8 79 -118 95 -134 129 -134 l34 0 -22 33 c-13 17 -43 58 -66 91 l-43 58
62 72 c48 56 58 72 44 74 -36 7 -62 -10 -121 -80 l-60 -71 -5 74 c-5 72 -6 74
-32 77 l-28 3 0 -165z"/>
<path d="M6400 5307 c-149 -79 -78 -321 90 -305 50 5 110 39 110 63 0 19 -43
42 -48 26 -5 -16 -56 -41 -83 -41 -11 0 -36 15 -55 34 -29 29 -34 41 -34 80 0
36 6 52 28 77 35 39 91 43 127 9 20 -19 26 -20 44 -8 32 19 25 34 -29 67 -45
27 -96 27 -150 -2z"/>
<path d="M6740 5166 l0 -166 30 0 30 0 0 70 0 70 75 0 75 0 0 -70 0 -70 30 0
30 0 0 165 0 165 -30 0 c-29 0 -29 0 -32 -67 l-3 -68 -72 -3 -72 -3 -3 68 c-3
66 -4 68 -30 71 l-28 3 0 -165z"/>
<path d="M7253 5313 c-4 -10 -32 -84 -64 -165 l-57 -148 34 0 c30 0 34 4 45
40 l12 40 62 0 62 0 12 -40 c11 -36 15 -40 45 -40 l34 0 -62 163 c-57 151 -64
162 -89 165 -19 2 -29 -2 -34 -15z m71 -161 c7 -21 5 -22 -39 -22 -41 0 -46 2
-40 18 4 9 14 37 23 62 l15 44 17 -39 c10 -22 20 -50 24 -63z"/>
<path d="M7560 5166 l0 -166 30 0 30 0 -2 163 -3 162 -27 3 -28 3 0 -165z"/>
<path d="M7780 5166 l0 -166 30 0 29 0 3 102 3 102 80 -101 c66 -85 85 -102
108 -103 l27 0 -2 163 -3 162 -27 3 -28 3 0 -105 c0 -58 -3 -106 -7 -105 -5 0
-44 46 -88 102 -52 67 -88 103 -102 105 l-23 3 0 -165z"/>
<path d="M8425 5305 c-29 -29 -31 -56 -7 -97 13 -24 14 -32 4 -35 -18 -7 -42
-57 -42 -88 0 -16 12 -38 29 -56 24 -24 38 -29 76 -29 25 0 56 5 67 11 15 8
26 8 43 -1 12 -6 37 -10 55 -8 l34 3 -30 35 c-28 33 -29 37 -18 70 20 54 17
70 -10 70 -19 0 -25 -7 -31 -36 l-6 -37 -35 34 c-33 32 -34 34 -15 49 22 18
41 52 41 75 0 31 -46 65 -90 65 -30 0 -47 -6 -65 -25z m79 -21 c30 -11 12 -64
-21 -64 -19 0 -29 50 -12 61 17 11 14 10 33 3z m11 -184 l38 -39 -29 -12 c-54
-20 -108 35 -74 77 18 20 21 19 65 -26z"/>
<path d="M8983 5298 c7 -18 37 -93 67 -165 50 -124 56 -133 81 -133 23 0 29 7
49 60 12 33 26 63 30 65 4 3 19 -23 33 -58 22 -54 28 -62 53 -65 29 -2 30 0
92 155 34 87 62 162 62 166 0 5 -14 7 -31 5 -31 -3 -33 -7 -77 -128 l-46 -125
-22 50 -21 50 28 78 28 77 -28 0 c-27 0 -31 -5 -48 -57 l-19 -57 -20 55 c-16
46 -23 54 -47 57 -15 2 -27 1 -27 -1 0 -3 12 -36 26 -73 26 -68 26 -70 9 -123
-9 -29 -20 -49 -25 -45 -4 5 -27 62 -50 127 l-43 117 -33 0 -34 0 13 -32z"/>
<path d="M9580 5165 l0 -165 110 0 110 0 0 25 c0 25 -1 25 -80 25 l-80 0 0 45
0 44 68 3 c61 3 67 5 70 26 3 21 0 22 -67 22 l-71 0 0 40 0 39 78 3 c75 3 77
4 77 28 0 25 0 25 -107 28 l-108 3 0 -166z"/>
<path d="M9940 5165 l0 -165 93 0 c53 0 102 6 117 13 55 28 64 94 18 137 -20
18 -20 21 -5 38 26 28 22 88 -8 117 -22 23 -32 25 -120 25 l-95 0 0 -165z
m161 105 c21 -12 25 -50 7 -68 -7 -7 -34 -12 -60 -12 l-48 0 0 45 0 45 41 0
c22 0 49 -5 60 -10z m28 -152 c16 -41 -8 -63 -73 -66 l-56 -3 0 46 0 45 60 0
c54 0 62 -3 69 -22z"/>
<path d="M10585 5260 c-37 -8 -75 -28 -75 -39 0 -4 8 -15 18 -24 15 -13 19
-14 36 -1 26 18 70 18 86 -1 18 -22 2 -55 -31 -62 -22 -4 -29 -11 -29 -29 0
-19 5 -24 24 -24 25 0 56 -23 56 -41 0 -6 -5 -19 -10 -30 -13 -23 -76 -26
-105 -5 -17 12 -21 12 -32 -3 -21 -27 -15 -38 29 -56 45 -18 110 -14 139 8 44
33 51 96 14 133 l-25 24 21 21 c28 28 23 86 -11 110 -32 22 -67 28 -105 19z"/>
<path d="M11082 5236 c-79 -91 -29 -236 82 -236 93 0 146 110 100 206 -23 47
-50 64 -105 64 -41 0 -51 -4 -77 -34z m104 -24 c37 -24 44 -96 13 -136 -40
-51 -91 -19 -93 58 -1 63 41 104 80 78z"/>
<path d="M10860 5036 c0 -32 3 -36 26 -36 23 0 25 3 22 33 -2 24 -8 33 -25 35
-20 3 -23 -1 -23 -32z"/>
</g>
</svg>
